inDegrees=no
num_controls=7
num_derivatives=13
num_iterations=75
num_multipliers=7
num_parameters=0
num_slacks=7
num_states=26
objective=0.426826
objective_accelerations=0.058523
objective_balance=0.001431
objective_effort=0.014691
objective_height=0.346370
objective_ligament=0.005811
solver_duration=1080.885123
status=Solve_Succeeded
success=true
DataType=double
version=3
OpenSimVersion=4.5
endheader
time	/jointset/ground_pelvis/pelvis_tilt/value	/jointset/ground_pelvis/pelvis_tx/value	/jointset/ground_pelvis/pelvis_ty/value	/jointset/hip_l/hip_flexion_l/value	/jointset/hip_l/hip_adduction_l/value	/jointset/hip_l/hip_rotation_l/value	/jointset/back/lumbar_extension/value	/jointset/patellofemoral_l/patellar_flexion_l/value	/jointset/knee_l/knee_flexion_l/value	/jointset/knee_l/knee_adduction_l/value	/jointset/knee_l/knee_rotation_l/value	/jointset/ankle_l/ankle_angle_l/value	/jointset/subtalar_l/subtalar_angle_l/value	/jointset/ground_pelvis/pelvis_tilt/speed	/jointset/ground_pelvis/pelvis_tx/speed	/jointset/ground_pelvis/pelvis_ty/speed	/jointset/hip_l/hip_flexion_l/speed	/jointset/hip_l/hip_adduction_l/speed	/jointset/hip_l/hip_rotation_l/speed	/jointset/back/lumbar_extension/speed	/jointset/patellofemoral_l/patellar_flexion_l/speed	/jointset/knee_l/knee_flexion_l/speed	/jointset/knee_l/knee_adduction_l/speed	/jointset/knee_l/knee_rotation_l/speed	/jointset/ankle_l/ankle_angle_l/speed	/jointset/subtalar_l/subtalar_angle_l/speed	/forceset/tau_hip_flexion_l	/forceset/tau_hip_adduction_l	/forceset/tau_hip_rotation_l	/forceset/tau_knee_flexion_l	/forceset/tau_ankle_angle_l	/forceset/tau_subtalar_angle_l	/forceset/tau_lumbar_extension	lambda_cid13_p0	lambda_cid13_p1	lambda_cid13_p2	lambda_cid13_p3	lambda_cid13_p4	lambda_cid13_p5	lambda_cid14_p0	/jointset/ground_pelvis/pelvis_tilt/accel	/jointset/ground_pelvis/pelvis_tx/accel	/jointset/ground_pelvis/pelvis_ty/accel	/jointset/hip_l/hip_flexion_l/accel	/jointset/hip_l/hip_adduction_l/accel	/jointset/hip_l/hip_rotation_l/accel	/jointset/back/lumbar_extension/accel	/jointset/patellofemoral_l/patellar_flexion_l/accel	/jointset/knee_l/knee_flexion_l/accel	/jointset/knee_l/knee_adduction_l/accel	/jointset/knee_l/knee_rotation_l/accel	/jointset/ankle_l/ankle_angle_l/accel	/jointset/subtalar_l/subtalar_angle_l/accel	gamma_cid13_p0	gamma_cid13_p1	gamma_cid13_p2	gamma_cid13_p3	gamma_cid13_p4	gamma_cid13_p5	gamma_cid14_p0
0	0.05173839605817487	0.1061813482871913	0.9039236211246635	0.1266922784136757	-0.3611919359004713	-0.2272612470230496	-0.2144969558742783	0.2051545070141862	0.2051545070141877	-0.1564330527204595	-0.1581518238880339	0.09024313228550125	0.08865260240726555	0	0	0	0	0	0	0	0	0	0	0	0	0	0.1140694828471515	-0.1041512032596338	-0.007683093644927832	-0.2459051088056578	0.1688940460985247	-0.03417741262769536	-0.04738707501577984	26.42327286259148	11.18190462448158	-3.16617702048803	-18.75921060399346	-438.7997877113039	-93.3713003403778	-26.04073082746176	-3.276075264456464	-1.075082707451501	-0.8600236722764119	11.4220564172318	-0.1488001455600771	3.125380246936238	-3.585060264629931	10.75205879895405	10.75205879895217	2.371384871539879	-0.9113000476036925	3.58600875186881	0.9056333148952866	1.482100989271957e-09	5.357979634191043e-07	-1.332490590517048e-07	4.840820369607062e-08	2.470744484230812e-08	2.643178885837718e-07	6.812646815539815e-08
0.01	0.05158227663776439	0.1061279636105527	0.9038818901911997	0.1272473520983108	-0.3611985376574866	-0.2270993055069237	-0.2146805385582626	0.2056788425730301	0.2056788425730032	-0.1563166492163689	-0.1581868729383081	0.09041785509753456	0.08869731243635036	-0.031110936550924	-0.01066780973394543	-0.008323431903287076	0.110575896900738	-0.001322429781381476	0.03226252878490696	-0.03646680093505034	0.1043586592174971	0.1043586592174741	0.02313527148820979	-0.006942224849019898	0.03471070839683543	0.008870764643763195	0.110658683338727	-0.1197116538589333	-0.006764909277536203	-0.2408917538452222	0.1565892648270872	-0.01728850247200179	-0.04479571330512647	23.44891969541095	3.943303063484206	-1.527222962617542	-17.021392458047	-439.4723725713167	-108.1427831811436	-26.04091462544291	-3.011661496807819	-1.061251585359025	-0.8150847894573701	10.8095290724857	-0.1243338302949608	3.257859755125026	-3.64002962885493	10.20148797537509	10.20148797537268	2.262858310558785	-0.5755800599205747	3.378537841230385	0.8670435899298016	-1.048658343596656e-08	7.468699460153733e-07	-1.174644230410086e-07	8.106147847350571e-08	-1.575504716976648e-07	2.753590227549928e-07	9.701464026898066e-08
0.02	0.05111843612256856	0.1059681765407763	0.9037576085706827	0.1288950193011578	-0.3612184375994947	-0.2266185045907953	-0.215221297175781	0.2072315084224781	0.2072315084224781	-0.1559732409928419	-0.1582893235083658	0.09093267218506185	0.08882857922203521	-0.06154421895778287	-0.02128047862756262	-0.01651013741062387	0.2185187036411001	-0.002659636997489753	0.06377188000410119	-0.07143518670661025	0.2056660581240997	0.2056660581240587	0.04540094390032005	-0.01348030395281526	0.06801885509925337	0.01731135132004893	0.1072478838304195	-0.1352721044581631	-0.005846724910033799	-0.2358783988846636	0.1442844835557244	-0.0003995923162113144	-0.04220435159446796	20.5243534231205	-3.299238327476893	0.1068996736470076	-15.34237664507754	-439.2872188870081	-122.7446933301481	-26.04119458468671	-3.140544435643557	-1.064054539385744	-0.8326783930863599	10.8954383851566	-0.1517556325054286	2.974744733793699	-3.28537723193192	10.14180673677517	10.14180673677427	2.197465056319988	-0.8304708985587632	3.30549641298544	0.8195977213998406	-2.245526786120508e-08	9.579419286116423e-07	-1.016797870303124e-07	1.137147532509408e-07	-3.398083882376377e-07	2.864001569262139e-07	1.259028123825632e-07
0.03	0.05035346790929002	0.1057026677172215	0.9035518645664335	0.1316094901703819	-0.3612515360650609	-0.2258277958777282	-0.2161036804862825	0.2097829291095211	0.2097829291095198	-0.1554109265921575	-0.1584564487303755	0.09177410235443774	0.08904258471437912	-0.09130938581885292	-0.0317973608799958	-0.02463645436882262	0.323903070233994	-0.003948903466002698	0.09424691752018673	-0.1047818108739997	0.3041279051782823	0.3041279051781928	0.06692654118058403	-0.01985171699198636	0.100064268151099	0.02544497097671629	0.1033569909691471	-0.1276275411105132	-0.005056489144441352	-0.2310413954706863	0.1387269665188186	-0.00453203920196873	-0.03929475146252624	18.48891000123513	-1.306613593264202	-0.02974643150269796	-13.83067665685749	-439.1926133091945	-117.7849606935398	-26.04116132070608	-2.873490460761976	-1.041893412500057	-0.8023456847166515	10.28907603696459	-0.1159656828239882	3.065486890625261	-3.320355331390085	9.62482227652831	9.624822276521686	2.109949631134437	-0.5265619643713524	3.123654845936384	0.8033889848429674	-3.061072744621398e-08	1.053509759706893e-06	-9.135159612807796e-08	1.326295543634164e-07	-4.694857020949736e-07	2.837999686368584e-07	1.40725866586675e-07
0.04	0.04929505049752076	0.1053327124022771	0.9032649099250967	0.1353636327536618	-0.3612972179010714	-0.2247360160634825	-0.2173117401029066	0.2133042579844614	0.2133042579844685	-0.1546373877052297	-0.1586845051743319	0.09292990487326259	0.08933655538269814	-0.1202340586568744	-0.04216977690548519	-0.03275226482817796	0.4264530464512404	-0.005176311086508891	0.1239861002406456	-0.1365704479313093	0.3996476957040068	0.3996476957038768	0.08764584115104543	-0.02566654834215867	0.1308933249890371	0.03330438651509664	0.09946609810790845	-0.1199829777628549	-0.004266253378838162	-0.2262043920566779	0.1331694494819272	-0.008664486087712942	-0.03638515133057471	16.4982024774549	0.688271279475446	-0.178283526581047	-12.36456896109532	-438.3037830596806	-112.6518238277879	-26.03998107048799	-2.972445631033959	-1.035161293996883	-0.8305770933176828	10.32856031002708	-0.139383862904069	2.827573774668364	-2.973779809916037	9.553395431083553	9.553395431084251	2.036205594359495	-0.7191545607589831	3.062225170204026	0.7647568977424849	-3.868756383864082e-08	1.146696061905216e-06	-8.113590924869842e-08	1.512610879776455e-07	-5.980788798145232e-07	2.809185159668725e-07	1.552589183596637e-07
0.05	0.04795082183760632	0.1048598393743562	0.9028965634480323	0.1401302308942881	-0.3613548905464865	-0.2233519907685152	-0.2188294335625533	0.2177669193113376	0.2177669193113267	-0.1536606430247425	-0.1589694552477364	0.09438821843268082	0.08970785575991114	-0.1484891009886803	-0.05237012423939042	-0.04093372151729401	0.5264032249057241	-0.006341756665629347	0.1526842555450773	-0.1667237939577377	0.4923966774684234	0.4923966774684705	0.1075625020438967	-0.03122353730032346	0.1605765987510754	0.04092204671831874	0.09575898979508793	-0.1180951231960317	-0.00342686957909115	-0.2225052265247978	0.1274341155924223	-0.007574225682905147	-0.03363725676558033	14.76122597299531	0.356383018869449	0.06026637501716961	-11.28112787755051	-437.6225505653	-112.4633785905601	-26.0367115061858	-2.7336353809575	-1.007235384151277	-0.8145542515186018	9.758744890894388	-0.1028118641075028	2.870779753448058	-2.999444493142866	9.062434549538446	9.062434549564646	1.948494103669812	-0.4590211523513405	2.892494169460009	0.755053833515029	-4.074040977070095e-08	1.127459655076829e-06	-1.161994976410525e-07	1.57059647301559e-07	-6.582709828662712e-07	3.028870449463285e-07	1.596371678971277e-07
